<svg xmlns="http://www.w3.org/2000/svg" viewBox="0 0 120 120" width="120" height="120" role="img" aria-label="augur">
  <title>augur</title>
  <circle cx="60" cy="60" r="55" fill="none" stroke="#1C1A15" stroke-width="2.3"/>
  <circle cx="60" cy="60" r="49.5" fill="none" stroke="#1C1A15" stroke-width="0.9"/>
  <g fill="#1C1A15">
    <circle cx="112.50" cy="60.00" r="0.72"/>
    <circle cx="112.15" cy="66.09" r="0.72"/>
    <circle cx="111.08" cy="72.11" r="0.72"/>
    <circle cx="109.33" cy="77.96" r="0.72"/>
    <circle cx="106.92" cy="83.56" r="0.72"/>
    <circle cx="103.86" cy="88.85" r="0.72"/>
    <circle cx="100.22" cy="93.75" r="0.72"/>
    <circle cx="96.03" cy="98.19" r="0.72"/>
    <circle cx="91.35" cy="102.11" r="0.72"/>
    <circle cx="86.25" cy="105.47" r="0.72"/>
    <circle cx="80.79" cy="108.21" r="0.72"/>
    <circle cx="75.06" cy="110.29" r="0.72"/>
    <circle cx="69.12" cy="111.70" r="0.72"/>
    <circle cx="63.05" cy="112.41" r="0.72"/>
    <circle cx="56.95" cy="112.41" r="0.72"/>
    <circle cx="50.88" cy="111.70" r="0.72"/>
    <circle cx="44.94" cy="110.29" r="0.72"/>
    <circle cx="39.21" cy="108.21" r="0.72"/>
    <circle cx="33.75" cy="105.47" r="0.72"/>
    <circle cx="28.65" cy="102.11" r="0.72"/>
    <circle cx="23.97" cy="98.19" r="0.72"/>
    <circle cx="19.78" cy="93.75" r="0.72"/>
    <circle cx="16.14" cy="88.85" r="0.72"/>
    <circle cx="13.08" cy="83.56" r="0.72"/>
    <circle cx="10.67" cy="77.96" r="0.72"/>
    <circle cx="8.92" cy="72.11" r="0.72"/>
    <circle cx="7.85" cy="66.09" r="0.72"/>
    <circle cx="7.50" cy="60.00" r="0.72"/>
    <circle cx="7.85" cy="53.91" r="0.72"/>
    <circle cx="8.92" cy="47.89" r="0.72"/>
    <circle cx="10.67" cy="42.04" r="0.72"/>
    <circle cx="13.08" cy="36.44" r="0.72"/>
    <circle cx="16.14" cy="31.15" r="0.72"/>
    <circle cx="19.78" cy="26.25" r="0.72"/>
    <circle cx="23.97" cy="21.81" r="0.72"/>
    <circle cx="28.65" cy="17.89" r="0.72"/>
    <circle cx="33.75" cy="14.53" r="0.72"/>
    <circle cx="39.21" cy="11.79" r="0.72"/>
    <circle cx="44.94" cy="9.71" r="0.72"/>
    <circle cx="50.88" cy="8.30" r="0.72"/>
    <circle cx="56.95" cy="7.59" r="0.72"/>
    <circle cx="63.05" cy="7.59" r="0.72"/>
    <circle cx="69.12" cy="8.30" r="0.72"/>
    <circle cx="75.06" cy="9.71" r="0.72"/>
    <circle cx="80.79" cy="11.79" r="0.72"/>
    <circle cx="86.25" cy="14.53" r="0.72"/>
    <circle cx="91.35" cy="17.89" r="0.72"/>
    <circle cx="96.03" cy="21.81" r="0.72"/>
    <circle cx="100.22" cy="26.25" r="0.72"/>
    <circle cx="103.86" cy="31.15" r="0.72"/>
    <circle cx="106.92" cy="36.44" r="0.72"/>
    <circle cx="109.33" cy="42.04" r="0.72"/>
    <circle cx="111.08" cy="47.89" r="0.72"/>
    <circle cx="112.15" cy="53.91" r="0.72"/>
  </g>
  <g stroke="#1C1A15" stroke-width="0.7" opacity="0.22">
    <line x1="60" y1="15" x2="60" y2="105"/><line x1="15" y1="60" x2="105" y2="60"/>
  </g>
  <path d="M54.50,91.88 L54.75,90.18 L55.01,88.48 L55.27,86.77 L55.54,85.07 L55.81,83.36 L56.08,81.66 L56.35,79.96 L56.63,78.25 L56.91,76.55 L57.20,74.85 L57.49,73.14 L57.78,71.44 L58.08,69.74 L58.38,68.03 L58.68,66.33 L58.99,64.63 L59.30,62.93 L59.61,61.22 L59.93,59.52 L60.25,57.82 L60.57,56.12 L60.90,54.41 L61.23,52.71 L61.57,51.01 L61.92,49.24 L62.22,48.27 L62.44,47.47 L62.64,46.68 L62.80,45.92 L62.93,45.17 L63.03,44.44 L63.10,43.73 L63.13,43.04 L63.14,42.36 L63.12,41.70 L63.06,41.06 L62.98,40.43 L62.86,39.82 L62.72,39.22 L62.55,38.64 L62.34,38.07 L62.11,37.51 L61.84,36.96 L61.55,36.42 L61.22,35.90 L60.86,35.38 L60.46,34.88 L60.03,34.38 L59.56,33.90 L59.59,33.71 L59.67,33.85 L59.09,33.98 L58.54,34.13 L58.01,34.29 L57.51,34.47 L57.04,34.66 L56.59,34.87 L56.17,35.10 L55.78,35.34 L55.41,35.60 L55.06,35.88 L54.74,36.17 L54.44,36.48 L54.16,36.81 L53.91,37.15 L53.67,37.52 L53.46,37.91 L53.26,38.32 L53.09,38.75 L52.94,39.21 L52.82,39.69 L52.71,40.19 L52.63,40.71 L52.58,41.27 L52.55,41.81 L52.57,42.15 L52.62,42.52 L52.67,42.88 L52.74,43.20 L52.82,43.50 L52.91,43.78 L53.01,44.03 L53.11,44.25 L53.23,44.46 L53.36,44.64 L53.49,44.80 L53.64,44.94 L53.79,45.06 L53.96,45.17 L54.14,45.27 L54.34,45.34 L54.56,45.41 L54.79,45.45 L55.05,45.48 L55.33,45.48 L55.62,45.46 L55.94,45.42 L56.28,45.36 L56.63,45.28 L57.01,45.16 L57.20,45.76 L57.39,46.36 L56.98,46.49 L56.57,46.60 L56.17,46.69 L55.78,46.76 L55.40,46.80 L55.03,46.82 L54.66,46.81 L54.31,46.77 L53.96,46.71 L53.63,46.61 L53.31,46.48 L53.00,46.33 L52.70,46.14 L52.43,45.92 L52.17,45.67 L51.94,45.40 L51.72,45.10 L51.52,44.78 L51.35,44.44 L51.19,44.08 L51.05,43.69 L50.93,43.28 L50.82,42.85 L50.73,42.40 L50.65,41.87 L50.65,41.18 L50.67,40.54 L50.73,39.91 L50.81,39.29 L50.93,38.69 L51.08,38.11 L51.25,37.55 L51.46,37.00 L51.71,36.47 L51.98,35.95 L52.29,35.46 L52.63,34.99 L53.00,34.53 L53.41,34.10 L53.84,33.70 L54.30,33.31 L54.80,32.95 L55.32,32.61 L55.87,32.30 L56.44,32.01 L57.05,31.74 L57.67,31.50 L58.33,31.28 L59.01,31.08 L60.41,30.93 L61.57,31.74 L62.16,32.29 L62.73,32.86 L63.26,33.46 L63.75,34.07 L64.22,34.71 L64.64,35.37 L65.03,36.05 L65.38,36.75 L65.70,37.47 L65.97,38.21 L66.21,38.97 L66.41,39.75 L66.57,40.54 L66.70,41.35 L66.78,42.18 L66.83,43.02 L66.84,43.88 L66.81,44.75 L66.75,45.63 L66.65,46.53 L66.51,47.45 L66.34,48.37 L66.13,49.31 L65.92,50.12 L65.65,51.75 L65.37,53.46 L65.09,55.16 L64.81,56.86 L64.54,58.56 L64.28,60.27 L64.01,61.97 L63.75,63.67 L63.50,65.37 L63.24,67.08 L63.00,68.78 L62.75,70.48 L62.51,72.18 L62.27,73.88 L62.04,75.59 L61.81,77.29 L61.58,78.99 L61.36,80.69 L61.14,82.39 L60.92,84.09 L60.71,85.79 L60.50,87.49 L60.30,89.19 L60.10,90.89 L59.90,92.60 Z" fill="#1C1A15"/>
</svg>
